<?xml version="1.0" encoding="UTF-8" standalone="no"?>
<!DOCTYPE svg PUBLIC "-//W3C//DTD SVG 1.1//EN" "http://www.w3.org/Graphics/SVG/1.1/DTD/svg11.dtd">
<svg xmlns="http://www.w3.org/2000/svg" xmlns:svg="http://www.w3.org/2000/svg" xmlns:xlink="http://www.w3.org/1999/xlink" version="1.1" width="2000" height="1400">

    <title>Bandeira Nacional</title>
    <desc>Desenho da bandeira do Brasil regulamentado pela Lei n° 5.700, de 1° de setembro de 1971, incluindo a alteração dada pela Lei n° 8.421, de 11 de maio de 1992. As cores seguem a paleta prioritária de cores do sistema de identidade visual do Ministério da Defesa, que consta no Manual de Identidade Visual do Ministério da Defesa, na edição de janeiro de 2015.</desc>

    <rect x="0" y="0" width="2000" height="1400" fill="rgb(0,112,36)" stroke-width="0" />

    <polygon points="170,700 1000,170 1830,700 1000,1230" fill="rgb(247,198,0)" stroke-width="0" />

    <circle cx="1000" cy="700" r="350" fill="rgb(33,42,116)" stroke-width="0" />

    <path d="M 661.20938 612.13125 A 350 350 0 0 1 679.86412 558.53261 A 850 850 0 0 1 1346.55097 749.01457 A 350 350 0 0 1 1334.07364 804.37818 A 800 800 0 0 0 661.20938 612.13125 Z" fill="rgb(255,255,255)" stroke-width="0" />

    <defs>
        <path id="faixa" d="M 659.73473 603.76015 A 808.5 808.5 0 0 1 1339.74817 798.04970" />
    </defs>

    <text font-family="Verdana" font-size="45" font-weight="600" word-spacing="10" letter-spacing="5" fill="rgb(0,112,36)" text-anchor="middle">
        <textPath xlink:href="#faixa" startOffset="50%">ORDEM <tspan font-size="41">E</tspan> PROGRESSO</textPath>
    </text>

    <g fill="rgb(255,255,255)" fill-rule="nonzero" stroke="rgb(255,255,255)" stroke-width="1">
        <polygon points="1103.95000,578.95000 1095.13322,606.08525 1118.21585,589.31475 1089.68415,589.31475 1112.76678,606.08525" />
        <polygon points="714.75000,622.00000 705.93322,649.13525 729.01585,632.36475 700.48415,632.36475 723.56678,649.13525" />
        <polygon points="870.50000,698.00000 863.15268,720.61271 882.38821,706.63729 858.61179,706.63729 877.84732,720.61271" />
        <polygon points="1091.70000,670.40000 1085.82215,688.49017 1101.21057,677.30983 1082.18943,677.30983 1097.57785,688.49017" />
        <polygon points="743.10000,769.00000 734.28322,796.13525 757.36585,779.36475 728.83415,779.36475 751.91678,796.13525" />
        <polygon points="703.90000,801.95000 696.55268,824.56271 715.78821,810.58729 692.01179,810.58729 711.24732,824.56271" />
        <polygon points="777.05000,754.25000 772.93550,766.91312 783.70740,759.08688 770.39260,759.08688 781.16450,766.91312" />
        <polygon points="817.65000,804.40000 810.30268,827.01271 829.53821,813.03729 805.76179,813.03729 824.99732,827.01271" />
        <polygon points="808.20000,843.30000 802.32215,861.39017 817.71057,850.20983 798.68943,850.20983 814.07785,861.39017" />
        <polygon points="860.00000,874.00000 851.18322,901.13525 874.26585,884.36475 845.73415,884.36475 868.81678,901.13525" />
        <polygon points="999.30000,741.75000 991.95268,764.36271 1011.18821,750.38729 987.41179,750.38729 1006.64732,764.36271" />
        <polygon points="965.70000,780.65000 959.82215,798.74017 975.21057,787.55983 956.18943,787.55983 971.57785,798.74017" />
        <polygon points="984.95000,803.60000 980.83550,816.26312 991.60740,808.43688 978.29260,808.43688 989.06450,816.26312" />
        <polygon points="1000.00000,843.55000 991.18322,870.68525 1014.26585,853.91475 985.73415,853.91475 1008.81678,870.68525" />
        <polygon points="1038.85000,773.95000 1031.50268,796.56271 1050.73821,782.58729 1026.96179,782.58729 1046.19732,796.56271" />
        <polygon points="1245.00000,805.05000 1236.18322,832.18525 1259.26585,815.41475 1230.73415,815.41475 1253.81678,832.18525" />
        <polygon points="1294.35000,812.85000 1288.47215,830.94017 1303.86057,819.75983 1284.83943,819.75983 1300.22785,830.94017" />
        <polygon points="1258.30000,842.55000 1250.95268,865.16271 1270.18821,851.18729 1246.41179,851.18729 1265.64732,865.16271" />
        <polygon points="1237.65000,868.80000 1230.30268,891.41271 1249.53821,877.43729 1225.76179,877.43729 1244.99732,891.41271" />
        <polygon points="1208.95000,888.45000 1203.07215,906.54017 1218.46057,895.35983 1199.43943,895.35983 1214.82785,906.54017" />
        <polygon points="1175.00000,886.35000 1169.12215,904.44017 1184.51057,893.25983 1165.48943,893.25983 1180.87785,904.44017" />
        <polygon points="1175.00000,917.45000 1167.65268,940.06271 1186.88821,926.08729 1163.11179,926.08729 1182.34732,940.06271" />
        <polygon points="1175.35000,952.15000 1169.47215,970.24017 1184.86057,959.05983 1165.83943,959.05983 1181.22785,970.24017" />
        <polygon points="1134.40000,892.65000 1128.52215,910.74017 1143.91057,899.55983 1124.88943,899.55983 1140.27785,910.74017" />
        <polygon points="1103.95000,924.45000 1096.60268,947.06271 1115.83821,933.08729 1092.06179,933.08729 1111.29732,947.06271" />
        <polygon points="1075.95000,884.25000 1070.07215,902.34017 1085.46057,891.15983 1066.43943,891.15983 1081.82785,902.34017" />
        <polygon points="1000.70000,966.25000 997.76107,975.29508 1005.45528,969.70492 995.94472,969.70492 1003.63893,975.29508" />
    </g>

</svg>
